<?xml version="1.0" encoding="iso-8859-1"?>
<!-- Generator: Adobe Illustrator 20.1.0, SVG Export Plug-In . SVG Version: 6.00 Build 0)  -->
<svg version="1.1" id="Snow-3" xmlns="http://www.w3.org/2000/svg" xmlns:xlink="http://www.w3.org/1999/xlink" x="0px" y="0px"
	 viewBox="0 0 31.414 31.414" style="enable-background:new 0 0 31.414 31.414;" xml:space="preserve">
<g>
	<path d="M31.414,13.414L30,12l-2.707,2.707h-7.172l-1-1l7-7h3.586v-2h-3v-3h-2v3.586l-7,7l-1-1V4.121l2.707-2.707L18,0
		l-2.293,2.293L13.414,0L12,1.414l2.707,2.707v7.172l-1,1l-7-7V1.707h-2v3h-3v2h3.586l7,7l-1,1H4.121L1.414,12L0,13.414l2.293,2.293
		L0,18l1.414,1.414l2.707-2.707h7.172l1,1l-7,7H1.707v2h3v3h2v-3.586l7-7l1,1v7.172L12,30l1.414,1.414l2.293-2.293L18,31.414
		L19.414,30l-2.707-2.707v-7.172l1-1l7,7v3.586h2v-3h3v-2h-3.586l-7-7l1-1h7.172L30,19.414L31.414,18l-2.293-2.293L31.414,13.414z
		 M18.293,15.707l-2.586,2.586l-2.586-2.586l2.586-2.586L18.293,15.707z"/>
	<rect x="14.707" y="14.707" width="2" height="2"/>
</g>
</svg>
